#!OML:ASF E:\Mandelcareful walks\Project 1\Capture day 1\Session 1\Subject1.ASF
:FULLY-SPECIFIED
:DEGREES
69
root -26.5807 15.5768 1.4247 -291.018 78.7778 -309.772
lowerback 18.8839 -0.0373061 -3.66721
upperback 5.04635 -0.482086 -0.438246
thorax -5.09059 -0.0925458 1.71595
lowerneck -27.2533 3.77253 -0.482639
upperneck 21.1011 8.07158 -8.80936
head 11.8386 2.43926 -1.75952
rclavicle 5.96354e-015 3.4191e-014
rhumerus -27.9269 6.35425 -82.1946
rradius 52.3645
rwrist -17.2507
rhand -10.3611 -30.4306
rfingers 7.12502
rthumb 15.6359 -59.8187
lclavicle 5.96354e-015 3.4191e-014
lhumerus -24.4508 -12.6502 82.0583
lradius 49.0869
lwrist 16.1462
lhand -20.1382 -8.49359
lfingers 7.12502
lthumb 6.20643 21.3955
rfemur -51.0777 -16.3999 12.4205
rtibia 55.0769
rfoot -21.8196 -9.06043
rtoes 1.21056
lfemur -42.5811 18.9866 -21.8348
ltibia 44.8479
lfoot -12.347 12.8899
ltoes -22.968
70
root -26.5862 15.5179 1.48944 -289.233 78.8222 -307.947
lowerback 19.4015 -0.109694 -3.21285
upperback 5.14618 -0.505017 -0.605981
thorax -5.26286 -0.0985038 1.28655
lowerneck -27.652 3.7092 -0.395463
upperneck 21.0707 7.98377 -8.90577
head 11.9053 2.38292 -1.823
rclavicle -3.33958e-014 -1.27222e-014
rhumerus -27.9451 5.69213 -82.0671
rradius 52.4315
rwrist -17.3155
rhand -10.4688 -30.7131
rfingers 7.12502
rthumb 15.5322 -60.1093
lclavicle -3.33958e-014 -1.27222e-014
lhumerus -24.2696 -12.3045 81.5914
lradius 50.253
lwrist 16.515
lhand -20.8394 -8.13798
lfingers 7.12502
lthumb 5.52945 21.7699
rfemur -51.5896 -16.5762 12.5068
rtibia 56.1739
rfoot -22.4191 -9.15667
rtoes 1.02574
lfemur -43.2364 18.7522 -21.6487
ltibia 46.0586
lfoot -12.2318 12.8547
ltoes -24.1505
71
root -26.5808 15.4652 1.54933 -288.533 78.8663 -307.1
lowerback 19.777 -0.264531 -3.13718
upperback 5.15946 -0.688102 -0.429576
thorax -5.43621 -0.18292 1.47782
lowerneck -27.0939 3.86344 -0.605643
upperneck 20.6469 8.30456 -9.18428
head 11.6673 2.51247 -1.83257
rclavicle -4.77083e-015 -4.29375e-014
rhumerus -28.0965 6.19786 -81.674
rradius 52.4603
rwrist -17.6474
rhand -10.62 -30.6169
rfingers 7.12502
rthumb 15.3866 -60.0244
lclavicle -4.77083e-015 -4.29375e-014
lhumerus -24.6101 -11.1237 81.5923
lradius 51.3416
lwrist 16.9289
lhand -21.5663 -8.68582
lfingers 7.12502
lthumb 4.82758 21.2392
rfemur -51.8949 -16.5272 12.5733
rtibia 57.2199
rfoot -23.2075 -9.09078
rtoes 1.64161
lfemur -43.8224 18.8162 -21.4237
ltibia 47.3214
lfoot -11.9389 12.9385
ltoes -25.3634
72
root -26.5683 15.4149 1.60468 -287.927 79.0208 -306.314
lowerback 20.0794 -0.375776 -2.69016
upperback 5.37818 -0.729847 -0.401792
thorax -5.36437 -0.20194 1.26455
lowerneck -27.2376 3.91711 -0.637369
upperneck 20.3946 8.44319 -9.4382
head 11.6207 2.54739 -1.89233
rclavicle 1.43125e-014 -1.03368e-014
rhumerus -27.8377 6.09047 -81.321
rradius 52.303
rwrist -17.8465
rhand -10.6333 -30.3316
rfingers 7.12502
rthumb 15.3738 -59.74
lclavicle 1.43125e-014 -1.03368e-014
lhumerus -24.2266 -10.7532 81.4509
lradius 52.0467
lwrist 17.5109
lhand -21.9846 -9.11797
lfingers 7.12502
lthumb 4.42364 20.8158
rfemur -52.0779 -16.4816 12.7555
rtibia 58.1771
rfoot -23.8559 -9.22064
rtoes 1.36863
lfemur -44.3635 18.8043 -21.0408
ltibia 48.6509
lfoot -11.606 12.93
ltoes -26.2369
73
root -26.555 15.3686 1.65439 -286.625 79.1422 -304.847
lowerback 20.4656 -0.501609 -2.18074
upperback 5.41743 -0.796404 -0.461473
thorax -5.5315 -0.231908 0.930052
lowerneck -27.0979 3.91885 -0.536529
upperneck 20.2907 8.47956 -9.73834
head 11.5819 2.54466 -2.01284
rclavicle 3.97569e-015 -1.11319e-014
rhumerus -27.799 5.78121 -81.0573
rradius 52.0719
rwrist -17.8295
rhand -10.1985 -30.0879
rfingers 7.12502
rthumb 15.7925 -59.4637
lclavicle 3.97569e-015 -1.11319e-014
lhumerus -24.2845 -10.6299 81.3311
lradius 52.9733
lwrist 17.6472
lhand -22.0245 -9.35748
lfingers 7.12502
lthumb 4.38511 20.5771
rfemur -52.2176 -16.5716 12.8574
rtibia 59.0588
rfoot -24.3208 -9.45976
rtoes 0.465097
lfemur -45.0041 18.7274 -20.7739
ltibia 50.1165
lfoot -11.2535 12.8329
ltoes -26.9978
